<?xml version="1.0" encoding="UTF-8"?>
<svg id="Capa_1" xmlns="http://www.w3.org/2000/svg" version="1.1" viewBox="0 0 44.64 15.52">
  <!-- Generator: Adobe Illustrator 29.8.1, SVG Export Plug-In . SVG Version: 2.1.1 Build 2)  -->
  <defs>
    <style>
      .st0 {
        fill: #131a62;
      }

      .st1 {
        fill: #d6696c;
      }
    </style>
  </defs>
  <path class="st1" d="M.56,15.41h3.62s-.01-3.67.19-3.62-3.81,0-3.81,0v3.62Z"/>
  <path class="st0" d="M.56.26v3.16h7.18s2.14.14,2.33,2.49-2.15,2.76-2.15,2.76h-3.74v3.1h4.87s2.97-.08,3.88-1.74.8-2.81.8-2.81c0,0,1.15-5.41-2.89-6.54S.56.26.56.26Z"/>
  <path class="st0" d="M28.17,4.71C27.24-.32,21.67.46,21.67.46h-7l-.18,15.06h3.61v-4.02h3.68l1.43,4.02h4.14l-2.43-4.59s4.18-1.18,3.25-6.21ZM24.63,5.92c-.36,3.55-6.54,2.33-6.54,2.33V3.53s6.89-1.17,6.54,2.38Z"/>
  <path class="st0" d="M36.51.42c-4.17,0-7.55,3.38-7.55,7.55s3.38,7.55,7.55,7.55,7.55-3.38,7.55-7.55S40.68.42,36.51.42ZM36.51,12.71c-2.62,0-4.74-2.12-4.74-4.74s2.12-4.74,4.74-4.74,4.74,2.12,4.74,4.74-2.12,4.74-4.74,4.74Z"/>
</svg>